<mxfile host="Electron" modified="2025-02-16T21:07:09.068Z" agent="Mozilla/5.0 (Windows NT 10.0; Win64; x64) AppleWebKit/537.36 (KHTML, like Gecko) draw.io/21.1.2 Chrome/106.0.5249.199 Electron/21.4.3 Safari/537.36" etag="zMJonH__alrTPtOOQXG3" version="21.1.2" type="device">
  <diagram name="Seite-1" id="sRHaPZORsPMR_08VSGCJ">
    <mxGraphModel dx="1793" dy="1055" grid="1" gridSize="10" guides="1" tooltips="1" connect="1" arrows="1" fold="1" page="1" pageScale="1" pageWidth="2339" pageHeight="3300" math="0" shadow="0">
      <root>
        <mxCell id="0" />
        <mxCell id="1" parent="0" />
        <mxCell id="9eyt7Mf1LLAKGoSY_mxJ-36" value="FormData" style="shape=providedRequiredInterface;html=1;verticalLabelPosition=bottom;sketch=0;" parent="1" vertex="1">
          <mxGeometry x="970" y="550" width="20" height="20" as="geometry" />
        </mxCell>
        <mxCell id="9eyt7Mf1LLAKGoSY_mxJ-37" value="" style="endArrow=none;html=1;rounded=0;entryX=0;entryY=0.5;entryDx=0;entryDy=0;entryPerimeter=0;" parent="1" target="9eyt7Mf1LLAKGoSY_mxJ-36" edge="1">
          <mxGeometry width="50" height="50" relative="1" as="geometry">
            <mxPoint x="840" y="560" as="sourcePoint" />
            <mxPoint x="990" y="580" as="targetPoint" />
          </mxGeometry>
        </mxCell>
        <mxCell id="9eyt7Mf1LLAKGoSY_mxJ-38" value="" style="endArrow=none;html=1;rounded=0;exitX=1;exitY=0.5;exitDx=0;exitDy=0;exitPerimeter=0;" parent="1" source="9eyt7Mf1LLAKGoSY_mxJ-36" target="9eyt7Mf1LLAKGoSY_mxJ-39" edge="1">
          <mxGeometry width="50" height="50" relative="1" as="geometry">
            <mxPoint x="990" y="559.94" as="sourcePoint" />
            <mxPoint x="1030" y="559.94" as="targetPoint" />
          </mxGeometry>
        </mxCell>
        <mxCell id="9eyt7Mf1LLAKGoSY_mxJ-39" value="«component»&lt;br&gt;&lt;b&gt;FormDataStore&lt;/b&gt;" style="html=1;dropTarget=0;whiteSpace=wrap;" parent="1" vertex="1">
          <mxGeometry x="1040" y="520" width="160" height="80" as="geometry" />
        </mxCell>
        <mxCell id="9eyt7Mf1LLAKGoSY_mxJ-40" value="" style="shape=module;jettyWidth=8;jettyHeight=4;" parent="9eyt7Mf1LLAKGoSY_mxJ-39" vertex="1">
          <mxGeometry x="1" width="20" height="20" relative="1" as="geometry">
            <mxPoint x="-27" y="7" as="offset" />
          </mxGeometry>
        </mxCell>
        <mxCell id="9eyt7Mf1LLAKGoSY_mxJ-43" value="«component»&lt;br&gt;&lt;b&gt;PreviewView&lt;/b&gt;" style="html=1;dropTarget=0;whiteSpace=wrap;" parent="1" vertex="1">
          <mxGeometry x="1200" y="640" width="160" height="80" as="geometry" />
        </mxCell>
        <mxCell id="9eyt7Mf1LLAKGoSY_mxJ-44" value="" style="shape=module;jettyWidth=8;jettyHeight=4;" parent="9eyt7Mf1LLAKGoSY_mxJ-43" vertex="1">
          <mxGeometry x="1" width="20" height="20" relative="1" as="geometry">
            <mxPoint x="-27" y="7" as="offset" />
          </mxGeometry>
        </mxCell>
        <mxCell id="9eyt7Mf1LLAKGoSY_mxJ-63" value="" style="shape=providedRequiredInterface;html=1;verticalLabelPosition=bottom;sketch=0;direction=east;" parent="1" vertex="1">
          <mxGeometry x="1250" y="550" width="20" height="20" as="geometry" />
        </mxCell>
        <mxCell id="9eyt7Mf1LLAKGoSY_mxJ-64" value="" style="endArrow=none;html=1;rounded=0;entryX=0;entryY=0.5;entryDx=0;entryDy=0;entryPerimeter=0;exitX=1;exitY=0.5;exitDx=0;exitDy=0;" parent="1" source="9eyt7Mf1LLAKGoSY_mxJ-39" target="9eyt7Mf1LLAKGoSY_mxJ-63" edge="1">
          <mxGeometry width="50" height="50" relative="1" as="geometry">
            <mxPoint x="1080" y="680" as="sourcePoint" />
            <mxPoint x="1010" y="750" as="targetPoint" />
          </mxGeometry>
        </mxCell>
        <mxCell id="9eyt7Mf1LLAKGoSY_mxJ-66" value="" style="shape=providedRequiredInterface;html=1;verticalLabelPosition=bottom;sketch=0;direction=west;align=center;" parent="1" vertex="1">
          <mxGeometry x="1711" y="550" width="20" height="20" as="geometry" />
        </mxCell>
        <mxCell id="9eyt7Mf1LLAKGoSY_mxJ-67" value="" style="endArrow=none;html=1;rounded=0;entryX=0;entryY=0.5;entryDx=0;entryDy=0;entryPerimeter=0;exitX=0;exitY=0.5;exitDx=0;exitDy=0;" parent="1" source="9eyt7Mf1LLAKGoSY_mxJ-96" target="9eyt7Mf1LLAKGoSY_mxJ-66" edge="1">
          <mxGeometry width="50" height="50" relative="1" as="geometry">
            <mxPoint x="1778.5" y="560" as="sourcePoint" />
            <mxPoint x="1668.5" y="570" as="targetPoint" />
          </mxGeometry>
        </mxCell>
        <mxCell id="9eyt7Mf1LLAKGoSY_mxJ-68" value="" style="endArrow=none;html=1;rounded=0;exitX=1;exitY=0.5;exitDx=0;exitDy=0;exitPerimeter=0;edgeStyle=orthogonalEdgeStyle;entryX=0.75;entryY=0;entryDx=0;entryDy=0;" parent="1" source="9eyt7Mf1LLAKGoSY_mxJ-66" target="9eyt7Mf1LLAKGoSY_mxJ-75" edge="1">
          <mxGeometry width="50" height="50" relative="1" as="geometry">
            <mxPoint x="1480" y="649.94" as="sourcePoint" />
            <mxPoint x="1550" y="680" as="targetPoint" />
            <Array as="points">
              <mxPoint x="1610" y="560" />
            </Array>
          </mxGeometry>
        </mxCell>
        <mxCell id="9eyt7Mf1LLAKGoSY_mxJ-74" value="" style="group" parent="1" vertex="1" connectable="0">
          <mxGeometry x="1490" y="640" width="160" height="80" as="geometry" />
        </mxCell>
        <mxCell id="9eyt7Mf1LLAKGoSY_mxJ-75" value="«Service»&lt;br&gt;&lt;b&gt;SourceCodeCreateService&lt;/b&gt;" style="html=1;align=center;verticalAlign=middle;dashed=0;whiteSpace=wrap;" parent="9eyt7Mf1LLAKGoSY_mxJ-74" vertex="1">
          <mxGeometry width="160" height="80" as="geometry" />
        </mxCell>
        <mxCell id="a9wcAX0pc3dKkxditSkH-39" style="edgeStyle=orthogonalEdgeStyle;rounded=0;orthogonalLoop=1;jettySize=auto;html=1;exitX=0.5;exitY=0;exitDx=0;exitDy=0;entryX=0.75;entryY=1;entryDx=0;entryDy=0;" parent="1" source="9eyt7Mf1LLAKGoSY_mxJ-96" target="9eyt7Mf1LLAKGoSY_mxJ-108" edge="1">
          <mxGeometry relative="1" as="geometry" />
        </mxCell>
        <mxCell id="a9wcAX0pc3dKkxditSkH-40" value="Persist when state updates" style="edgeLabel;html=1;align=center;verticalAlign=middle;resizable=0;points=[];" parent="a9wcAX0pc3dKkxditSkH-39" vertex="1" connectable="0">
          <mxGeometry x="0.1333" y="1" relative="1" as="geometry">
            <mxPoint x="-35" y="9" as="offset" />
          </mxGeometry>
        </mxCell>
        <mxCell id="9eyt7Mf1LLAKGoSY_mxJ-96" value="«component»&lt;br&gt;&lt;b&gt;FormConfigStore&lt;/b&gt;" style="html=1;dropTarget=0;whiteSpace=wrap;" parent="1" vertex="1">
          <mxGeometry x="1795.5" y="520" width="160" height="80" as="geometry" />
        </mxCell>
        <mxCell id="9eyt7Mf1LLAKGoSY_mxJ-97" value="" style="shape=module;jettyWidth=8;jettyHeight=4;" parent="9eyt7Mf1LLAKGoSY_mxJ-96" vertex="1">
          <mxGeometry x="1" width="20" height="20" relative="1" as="geometry">
            <mxPoint x="-27" y="7" as="offset" />
          </mxGeometry>
        </mxCell>
        <mxCell id="9eyt7Mf1LLAKGoSY_mxJ-98" value="&lt;b&gt;LocalStorage&lt;/b&gt;" style="html=1;dropTarget=0;whiteSpace=wrap;" parent="1" vertex="1">
          <mxGeometry x="1440" y="80" width="180" height="70" as="geometry" />
        </mxCell>
        <mxCell id="9eyt7Mf1LLAKGoSY_mxJ-99" value="" style="shape=providedRequiredInterface;html=1;verticalLabelPosition=bottom;sketch=0;rotation=90;flipH=0;" parent="1" vertex="1">
          <mxGeometry x="1520" y="195" width="20" height="20" as="geometry" />
        </mxCell>
        <mxCell id="9eyt7Mf1LLAKGoSY_mxJ-100" value="" style="endArrow=none;html=1;rounded=0;" parent="1" source="9eyt7Mf1LLAKGoSY_mxJ-98" target="9eyt7Mf1LLAKGoSY_mxJ-99" edge="1">
          <mxGeometry width="50" height="50" relative="1" as="geometry">
            <mxPoint x="1930" y="50" as="sourcePoint" />
            <mxPoint x="1990" y="90" as="targetPoint" />
          </mxGeometry>
        </mxCell>
        <mxCell id="9eyt7Mf1LLAKGoSY_mxJ-101" value="Manage Storage" style="edgeLabel;html=1;align=center;verticalAlign=middle;resizable=0;points=[];" parent="9eyt7Mf1LLAKGoSY_mxJ-100" vertex="1" connectable="0">
          <mxGeometry x="-0.1944" relative="1" as="geometry">
            <mxPoint y="4" as="offset" />
          </mxGeometry>
        </mxCell>
        <mxCell id="9eyt7Mf1LLAKGoSY_mxJ-111" value="" style="endArrow=none;html=1;rounded=0;entryX=0;entryY=0.5;entryDx=0;entryDy=0;entryPerimeter=0;edgeStyle=orthogonalEdgeStyle;exitX=0;exitY=0.5;exitDx=0;exitDy=0;" parent="1" source="9eyt7Mf1LLAKGoSY_mxJ-108" target="9eyt7Mf1LLAKGoSY_mxJ-36" edge="1">
          <mxGeometry width="50" height="50" relative="1" as="geometry">
            <mxPoint x="1450" y="450" as="sourcePoint" />
            <mxPoint x="1006.666666666667" y="380" as="targetPoint" />
            <Array as="points">
              <mxPoint x="1450" y="360" />
              <mxPoint x="940" y="360" />
              <mxPoint x="940" y="560" />
            </Array>
          </mxGeometry>
        </mxCell>
        <mxCell id="9eyt7Mf1LLAKGoSY_mxJ-118" value="Get cached FormData" style="edgeLabel;html=1;align=center;verticalAlign=middle;resizable=0;points=[];" parent="9eyt7Mf1LLAKGoSY_mxJ-111" vertex="1" connectable="0">
          <mxGeometry x="-0.1743" y="1" relative="1" as="geometry">
            <mxPoint x="-194" y="129" as="offset" />
          </mxGeometry>
        </mxCell>
        <mxCell id="9eyt7Mf1LLAKGoSY_mxJ-108" value="«component»&lt;br&gt;&lt;b&gt;StorageService&lt;br&gt;&lt;/b&gt;" style="html=1;dropTarget=0;whiteSpace=wrap;" parent="1" vertex="1">
          <mxGeometry x="1450" y="320" width="160" height="80" as="geometry" />
        </mxCell>
        <mxCell id="9eyt7Mf1LLAKGoSY_mxJ-109" value="" style="shape=module;jettyWidth=8;jettyHeight=4;" parent="9eyt7Mf1LLAKGoSY_mxJ-108" vertex="1">
          <mxGeometry x="1" width="20" height="20" relative="1" as="geometry">
            <mxPoint x="-27" y="7" as="offset" />
          </mxGeometry>
        </mxCell>
        <mxCell id="9eyt7Mf1LLAKGoSY_mxJ-127" value="" style="endArrow=none;html=1;rounded=0;exitX=0.5;exitY=0;exitDx=0;exitDy=0;edgeStyle=orthogonalEdgeStyle;entryX=1;entryY=0.5;entryDx=0;entryDy=0;entryPerimeter=0;" parent="1" source="9eyt7Mf1LLAKGoSY_mxJ-108" target="9eyt7Mf1LLAKGoSY_mxJ-99" edge="1">
          <mxGeometry width="50" height="50" relative="1" as="geometry">
            <mxPoint x="1190" y="220" as="sourcePoint" />
            <mxPoint x="1238" y="220" as="targetPoint" />
            <Array as="points">
              <mxPoint x="1530" y="290" />
              <mxPoint x="1530" y="290" />
            </Array>
          </mxGeometry>
        </mxCell>
        <mxCell id="9eyt7Mf1LLAKGoSY_mxJ-130" value="FormConfig" style="shape=providedRequiredInterface;html=1;verticalLabelPosition=bottom;sketch=0;direction=west;" parent="1" vertex="1">
          <mxGeometry x="2007.5" y="550" width="20" height="20" as="geometry" />
        </mxCell>
        <mxCell id="9eyt7Mf1LLAKGoSY_mxJ-131" value="" style="endArrow=none;html=1;rounded=0;entryX=0;entryY=0.5;entryDx=0;entryDy=0;entryPerimeter=0;exitX=1;exitY=0.5;exitDx=0;exitDy=0;edgeStyle=orthogonalEdgeStyle;" parent="1" source="9eyt7Mf1LLAKGoSY_mxJ-108" target="9eyt7Mf1LLAKGoSY_mxJ-130" edge="1">
          <mxGeometry width="50" height="50" relative="1" as="geometry">
            <mxPoint x="1888.5" y="460" as="sourcePoint" />
            <mxPoint x="1908.5" y="480" as="targetPoint" />
            <Array as="points">
              <mxPoint x="1610" y="360" />
              <mxPoint x="2050" y="360" />
              <mxPoint x="2050" y="560" />
            </Array>
          </mxGeometry>
        </mxCell>
        <mxCell id="9eyt7Mf1LLAKGoSY_mxJ-135" value="Get cached FormConfig" style="edgeLabel;html=1;align=center;verticalAlign=middle;resizable=0;points=[];" parent="9eyt7Mf1LLAKGoSY_mxJ-131" vertex="1" connectable="0">
          <mxGeometry x="0.3067" relative="1" as="geometry">
            <mxPoint x="7" y="130" as="offset" />
          </mxGeometry>
        </mxCell>
        <mxCell id="9eyt7Mf1LLAKGoSY_mxJ-132" value="" style="endArrow=none;html=1;rounded=0;entryX=1;entryY=0.5;entryDx=0;entryDy=0;exitX=1;exitY=0.5;exitDx=0;exitDy=0;exitPerimeter=0;" parent="1" source="9eyt7Mf1LLAKGoSY_mxJ-130" target="9eyt7Mf1LLAKGoSY_mxJ-96" edge="1">
          <mxGeometry width="50" height="50" relative="1" as="geometry">
            <mxPoint x="2121" y="519.94" as="sourcePoint" />
            <mxPoint x="2131" y="580" as="targetPoint" />
          </mxGeometry>
        </mxCell>
        <mxCell id="9eyt7Mf1LLAKGoSY_mxJ-133" value="«component»&lt;br&gt;&lt;b&gt;FormConfigView&lt;/b&gt;" style="html=1;dropTarget=0;whiteSpace=wrap;" parent="1" vertex="1">
          <mxGeometry x="1781" y="680" width="160" height="80" as="geometry" />
        </mxCell>
        <mxCell id="9eyt7Mf1LLAKGoSY_mxJ-134" value="" style="shape=module;jettyWidth=8;jettyHeight=4;" parent="9eyt7Mf1LLAKGoSY_mxJ-133" vertex="1">
          <mxGeometry x="1" width="20" height="20" relative="1" as="geometry">
            <mxPoint x="-27" y="7" as="offset" />
          </mxGeometry>
        </mxCell>
        <mxCell id="9eyt7Mf1LLAKGoSY_mxJ-141" value="«artifact»&lt;br&gt;&lt;b&gt;formConfig.json&lt;/b&gt;" style="html=1;dropTarget=0;whiteSpace=wrap;" parent="1" vertex="1">
          <mxGeometry x="2160" y="750" width="160" height="60" as="geometry" />
        </mxCell>
        <mxCell id="9eyt7Mf1LLAKGoSY_mxJ-142" value="" style="shape=module;jettyWidth=8;jettyHeight=4;" parent="9eyt7Mf1LLAKGoSY_mxJ-141" vertex="1">
          <mxGeometry x="1" width="20" height="20" relative="1" as="geometry">
            <mxPoint x="-27" y="7" as="offset" />
          </mxGeometry>
        </mxCell>
        <mxCell id="9eyt7Mf1LLAKGoSY_mxJ-146" value="" style="endArrow=none;html=1;rounded=0;exitX=1;exitY=0.5;exitDx=0;exitDy=0;edgeStyle=orthogonalEdgeStyle;exitPerimeter=0;entryX=0;entryY=0.5;entryDx=0;entryDy=0;" parent="1" source="9eyt7Mf1LLAKGoSY_mxJ-66" target="9eyt7Mf1LLAKGoSY_mxJ-133" edge="1">
          <mxGeometry width="50" height="50" relative="1" as="geometry">
            <mxPoint x="1668.5" y="680" as="sourcePoint" />
            <mxPoint x="1716.5" y="680" as="targetPoint" />
            <Array as="points">
              <mxPoint x="1700" y="560" />
              <mxPoint x="1700" y="720" />
            </Array>
          </mxGeometry>
        </mxCell>
        <mxCell id="9eyt7Mf1LLAKGoSY_mxJ-147" value="FormConfig as String" style="shape=providedRequiredInterface;html=1;verticalLabelPosition=bottom;sketch=0;direction=west;" parent="1" vertex="1">
          <mxGeometry x="2061" y="770" width="20" height="20" as="geometry" />
        </mxCell>
        <mxCell id="9eyt7Mf1LLAKGoSY_mxJ-148" value="" style="endArrow=none;html=1;rounded=0;entryX=0;entryY=0.5;entryDx=0;entryDy=0;entryPerimeter=0;exitX=0;exitY=0.5;exitDx=0;exitDy=0;edgeStyle=orthogonalEdgeStyle;" parent="1" source="9eyt7Mf1LLAKGoSY_mxJ-141" target="9eyt7Mf1LLAKGoSY_mxJ-147" edge="1">
          <mxGeometry width="50" height="50" relative="1" as="geometry">
            <mxPoint x="2221" y="1095" as="sourcePoint" />
            <mxPoint x="2241" y="1115" as="targetPoint" />
            <Array as="points">
              <mxPoint x="2123.5" y="780" />
              <mxPoint x="2123.5" y="780" />
            </Array>
          </mxGeometry>
        </mxCell>
        <mxCell id="9eyt7Mf1LLAKGoSY_mxJ-149" value="" style="endArrow=none;html=1;rounded=0;exitX=1;exitY=0.5;exitDx=0;exitDy=0;exitPerimeter=0;entryX=1;entryY=0.75;entryDx=0;entryDy=0;edgeStyle=orthogonalEdgeStyle;" parent="1" source="9eyt7Mf1LLAKGoSY_mxJ-147" target="9eyt7Mf1LLAKGoSY_mxJ-133" edge="1">
          <mxGeometry width="50" height="50" relative="1" as="geometry">
            <mxPoint x="2193.5" y="819.3700000000001" as="sourcePoint" />
            <mxPoint x="2003.5" y="814.4300000000001" as="targetPoint" />
            <Array as="points">
              <mxPoint x="2013.5" y="780" />
              <mxPoint x="2013.5" y="740" />
            </Array>
          </mxGeometry>
        </mxCell>
        <mxCell id="a9wcAX0pc3dKkxditSkH-32" value="Import" style="edgeLabel;html=1;align=center;verticalAlign=middle;resizable=0;points=[];" parent="9eyt7Mf1LLAKGoSY_mxJ-149" vertex="1" connectable="0">
          <mxGeometry x="0.4846" y="-1" relative="1" as="geometry">
            <mxPoint y="11" as="offset" />
          </mxGeometry>
        </mxCell>
        <mxCell id="9eyt7Mf1LLAKGoSY_mxJ-150" value="FormConfig as JSON" style="shape=providedRequiredInterface;html=1;verticalLabelPosition=bottom;sketch=0;direction=east;" parent="1" vertex="1">
          <mxGeometry x="2061" y="690" width="20" height="20" as="geometry" />
        </mxCell>
        <mxCell id="9eyt7Mf1LLAKGoSY_mxJ-151" value="" style="endArrow=none;html=1;rounded=0;entryX=0;entryY=0.5;entryDx=0;entryDy=0;entryPerimeter=0;exitX=1;exitY=0.25;exitDx=0;exitDy=0;" parent="1" source="9eyt7Mf1LLAKGoSY_mxJ-133" target="9eyt7Mf1LLAKGoSY_mxJ-150" edge="1">
          <mxGeometry width="50" height="50" relative="1" as="geometry">
            <mxPoint x="2191" y="720" as="sourcePoint" />
            <mxPoint x="2341" y="960" as="targetPoint" />
          </mxGeometry>
        </mxCell>
        <mxCell id="9eyt7Mf1LLAKGoSY_mxJ-163" value="Export" style="edgeLabel;html=1;align=center;verticalAlign=middle;resizable=0;points=[];" parent="9eyt7Mf1LLAKGoSY_mxJ-151" vertex="1" connectable="0">
          <mxGeometry x="-0.1881" y="-2" relative="1" as="geometry">
            <mxPoint x="-6" y="-12" as="offset" />
          </mxGeometry>
        </mxCell>
        <mxCell id="9eyt7Mf1LLAKGoSY_mxJ-152" value="" style="endArrow=none;html=1;rounded=0;exitX=1;exitY=0.5;exitDx=0;exitDy=0;exitPerimeter=0;" parent="1" source="9eyt7Mf1LLAKGoSY_mxJ-150" target="9eyt7Mf1LLAKGoSY_mxJ-156" edge="1">
          <mxGeometry width="50" height="50" relative="1" as="geometry">
            <mxPoint x="2343.5" y="849.94" as="sourcePoint" />
            <mxPoint x="2143.5" y="790" as="targetPoint" />
          </mxGeometry>
        </mxCell>
        <mxCell id="9eyt7Mf1LLAKGoSY_mxJ-156" value="«artifact»&lt;br&gt;&lt;b&gt;formConfig.json&lt;/b&gt;" style="html=1;dropTarget=0;whiteSpace=wrap;" parent="1" vertex="1">
          <mxGeometry x="2160" y="670" width="160" height="60" as="geometry" />
        </mxCell>
        <mxCell id="9eyt7Mf1LLAKGoSY_mxJ-157" value="" style="shape=module;jettyWidth=8;jettyHeight=4;" parent="9eyt7Mf1LLAKGoSY_mxJ-156" vertex="1">
          <mxGeometry x="1" width="20" height="20" relative="1" as="geometry">
            <mxPoint x="-27" y="7" as="offset" />
          </mxGeometry>
        </mxCell>
        <mxCell id="a9wcAX0pc3dKkxditSkH-2" value="«component»&lt;br&gt;&lt;b&gt;PreviewFormComponent&lt;/b&gt;" style="html=1;dropTarget=0;whiteSpace=wrap;" parent="1" vertex="1">
          <mxGeometry x="1200" y="840" width="160" height="80" as="geometry" />
        </mxCell>
        <mxCell id="a9wcAX0pc3dKkxditSkH-3" value="" style="shape=module;jettyWidth=8;jettyHeight=4;" parent="a9wcAX0pc3dKkxditSkH-2" vertex="1">
          <mxGeometry x="1" width="20" height="20" relative="1" as="geometry">
            <mxPoint x="-27" y="7" as="offset" />
          </mxGeometry>
        </mxCell>
        <mxCell id="a9wcAX0pc3dKkxditSkH-6" value="" style="shape=providedRequiredInterface;html=1;verticalLabelPosition=bottom;sketch=0;direction=south;" parent="1" vertex="1">
          <mxGeometry x="1310" y="790" width="20" height="20" as="geometry" />
        </mxCell>
        <mxCell id="a9wcAX0pc3dKkxditSkH-7" value="" style="endArrow=none;html=1;rounded=0;entryX=0;entryY=0.5;entryDx=0;entryDy=0;entryPerimeter=0;exitX=0.75;exitY=1;exitDx=0;exitDy=0;" parent="1" source="9eyt7Mf1LLAKGoSY_mxJ-43" target="a9wcAX0pc3dKkxditSkH-6" edge="1">
          <mxGeometry width="50" height="50" relative="1" as="geometry">
            <mxPoint x="850" y="920" as="sourcePoint" />
            <mxPoint x="870" y="940" as="targetPoint" />
          </mxGeometry>
        </mxCell>
        <mxCell id="a9wcAX0pc3dKkxditSkH-14" value="FormData" style="edgeLabel;html=1;align=center;verticalAlign=middle;resizable=0;points=[];" parent="a9wcAX0pc3dKkxditSkH-7" vertex="1" connectable="0">
          <mxGeometry x="0.1771" y="2" relative="1" as="geometry">
            <mxPoint x="-2" as="offset" />
          </mxGeometry>
        </mxCell>
        <mxCell id="a9wcAX0pc3dKkxditSkH-8" value="" style="endArrow=none;html=1;rounded=0;entryX=0.75;entryY=0;entryDx=0;entryDy=0;exitX=1;exitY=0.5;exitDx=0;exitDy=0;exitPerimeter=0;" parent="1" source="a9wcAX0pc3dKkxditSkH-6" target="a9wcAX0pc3dKkxditSkH-2" edge="1">
          <mxGeometry width="50" height="50" relative="1" as="geometry">
            <mxPoint x="1120" y="816.24" as="sourcePoint" />
            <mxPoint x="1160" y="816.24" as="targetPoint" />
          </mxGeometry>
        </mxCell>
        <mxCell id="a9wcAX0pc3dKkxditSkH-9" value="" style="shape=providedRequiredInterface;html=1;verticalLabelPosition=bottom;sketch=0;direction=north;" parent="1" vertex="1">
          <mxGeometry x="1230" y="790" width="20" height="20" as="geometry" />
        </mxCell>
        <mxCell id="a9wcAX0pc3dKkxditSkH-10" value="" style="endArrow=none;html=1;rounded=0;exitX=0.25;exitY=1;exitDx=0;exitDy=0;entryX=1;entryY=0.5;entryDx=0;entryDy=0;entryPerimeter=0;" parent="1" source="9eyt7Mf1LLAKGoSY_mxJ-43" target="a9wcAX0pc3dKkxditSkH-9" edge="1">
          <mxGeometry width="50" height="50" relative="1" as="geometry">
            <mxPoint x="1020" y="860" as="sourcePoint" />
            <mxPoint x="1050" y="900" as="targetPoint" />
          </mxGeometry>
        </mxCell>
        <mxCell id="a9wcAX0pc3dKkxditSkH-11" value="" style="endArrow=none;html=1;rounded=0;entryX=0.25;entryY=0;entryDx=0;entryDy=0;exitX=0;exitY=0.5;exitDx=0;exitDy=0;exitPerimeter=0;" parent="1" source="a9wcAX0pc3dKkxditSkH-9" target="a9wcAX0pc3dKkxditSkH-2" edge="1">
          <mxGeometry width="50" height="50" relative="1" as="geometry">
            <mxPoint x="1260" y="836.3" as="sourcePoint" />
            <mxPoint x="1230" y="876.3" as="targetPoint" />
          </mxGeometry>
        </mxCell>
        <mxCell id="a9wcAX0pc3dKkxditSkH-13" value="User input" style="edgeLabel;html=1;align=center;verticalAlign=middle;resizable=0;points=[];" parent="a9wcAX0pc3dKkxditSkH-11" vertex="1" connectable="0">
          <mxGeometry x="-0.2533" y="-2" relative="1" as="geometry">
            <mxPoint x="2" y="1" as="offset" />
          </mxGeometry>
        </mxCell>
        <mxCell id="a9wcAX0pc3dKkxditSkH-17" value="" style="endArrow=none;html=1;rounded=0;entryX=0;entryY=0.75;entryDx=0;entryDy=0;edgeStyle=orthogonalEdgeStyle;exitX=0;exitY=0.5;exitDx=0;exitDy=0;exitPerimeter=0;" parent="1" source="9eyt7Mf1LLAKGoSY_mxJ-36" target="9eyt7Mf1LLAKGoSY_mxJ-43" edge="1">
          <mxGeometry width="50" height="50" relative="1" as="geometry">
            <mxPoint x="1019.94" y="690" as="sourcePoint" />
            <mxPoint x="889.94" y="780" as="targetPoint" />
            <Array as="points">
              <mxPoint x="920" y="560" />
              <mxPoint x="920" y="700" />
            </Array>
          </mxGeometry>
        </mxCell>
        <mxCell id="a9wcAX0pc3dKkxditSkH-18" value="update form data based on user input" style="edgeLabel;html=1;align=center;verticalAlign=middle;resizable=0;points=[];" parent="a9wcAX0pc3dKkxditSkH-17" vertex="1" connectable="0">
          <mxGeometry x="-0.4176" y="-1" relative="1" as="geometry">
            <mxPoint as="offset" />
          </mxGeometry>
        </mxCell>
        <mxCell id="a9wcAX0pc3dKkxditSkH-19" value="" style="endArrow=none;html=1;rounded=0;exitX=0;exitY=0.5;exitDx=0;exitDy=0;exitPerimeter=0;edgeStyle=orthogonalEdgeStyle;entryX=0.5;entryY=0;entryDx=0;entryDy=0;" parent="1" source="9eyt7Mf1LLAKGoSY_mxJ-130" target="9eyt7Mf1LLAKGoSY_mxJ-133" edge="1">
          <mxGeometry width="50" height="50" relative="1" as="geometry">
            <mxPoint x="2148.5" y="480" as="sourcePoint" />
            <mxPoint x="2148.5" y="530" as="targetPoint" />
            <Array as="points">
              <mxPoint x="2070" y="560" />
              <mxPoint x="2070" y="660" />
              <mxPoint x="1861" y="660" />
            </Array>
          </mxGeometry>
        </mxCell>
        <mxCell id="a9wcAX0pc3dKkxditSkH-20" value="update config based on user input" style="edgeLabel;html=1;align=center;verticalAlign=middle;resizable=0;points=[];" parent="a9wcAX0pc3dKkxditSkH-19" vertex="1" connectable="0">
          <mxGeometry x="-0.0007" y="-2" relative="1" as="geometry">
            <mxPoint x="23" y="-28" as="offset" />
          </mxGeometry>
        </mxCell>
        <mxCell id="a9wcAX0pc3dKkxditSkH-21" value="«component»&lt;br&gt;&lt;b&gt;FormConfigFormComponent&lt;/b&gt;" style="html=1;dropTarget=0;whiteSpace=wrap;" parent="1" vertex="1">
          <mxGeometry x="1760" y="840" width="200" height="80" as="geometry" />
        </mxCell>
        <mxCell id="a9wcAX0pc3dKkxditSkH-22" value="" style="shape=module;jettyWidth=8;jettyHeight=4;" parent="a9wcAX0pc3dKkxditSkH-21" vertex="1">
          <mxGeometry x="1" width="20" height="20" relative="1" as="geometry">
            <mxPoint x="-27" y="7" as="offset" />
          </mxGeometry>
        </mxCell>
        <mxCell id="a9wcAX0pc3dKkxditSkH-23" value="" style="shape=providedRequiredInterface;html=1;verticalLabelPosition=bottom;sketch=0;direction=south;" parent="1" vertex="1">
          <mxGeometry x="1891" y="790" width="20" height="20" as="geometry" />
        </mxCell>
        <mxCell id="a9wcAX0pc3dKkxditSkH-24" value="" style="endArrow=none;html=1;rounded=0;entryX=0;entryY=0.5;entryDx=0;entryDy=0;entryPerimeter=0;exitX=0.75;exitY=1;exitDx=0;exitDy=0;" parent="1" source="9eyt7Mf1LLAKGoSY_mxJ-133" target="a9wcAX0pc3dKkxditSkH-23" edge="1">
          <mxGeometry width="50" height="50" relative="1" as="geometry">
            <mxPoint x="1901" y="760" as="sourcePoint" />
            <mxPoint x="1501" y="940" as="targetPoint" />
          </mxGeometry>
        </mxCell>
        <mxCell id="a9wcAX0pc3dKkxditSkH-25" value="FormConfig" style="edgeLabel;html=1;align=center;verticalAlign=middle;resizable=0;points=[];" parent="a9wcAX0pc3dKkxditSkH-24" vertex="1" connectable="0">
          <mxGeometry x="0.1771" y="2" relative="1" as="geometry">
            <mxPoint x="-2" as="offset" />
          </mxGeometry>
        </mxCell>
        <mxCell id="a9wcAX0pc3dKkxditSkH-26" value="" style="endArrow=none;html=1;rounded=0;entryX=0.706;entryY=0.004;entryDx=0;entryDy=0;exitX=1;exitY=0.5;exitDx=0;exitDy=0;exitPerimeter=0;entryPerimeter=0;" parent="1" source="a9wcAX0pc3dKkxditSkH-23" target="a9wcAX0pc3dKkxditSkH-21" edge="1">
          <mxGeometry width="50" height="50" relative="1" as="geometry">
            <mxPoint x="1701" y="816.24" as="sourcePoint" />
            <mxPoint x="1901" y="840" as="targetPoint" />
          </mxGeometry>
        </mxCell>
        <mxCell id="a9wcAX0pc3dKkxditSkH-27" value="" style="shape=providedRequiredInterface;html=1;verticalLabelPosition=bottom;sketch=0;direction=north;" parent="1" vertex="1">
          <mxGeometry x="1811" y="790" width="20" height="20" as="geometry" />
        </mxCell>
        <mxCell id="a9wcAX0pc3dKkxditSkH-28" value="" style="endArrow=none;html=1;rounded=0;exitX=0.25;exitY=1;exitDx=0;exitDy=0;entryX=1;entryY=0.5;entryDx=0;entryDy=0;entryPerimeter=0;" parent="1" source="9eyt7Mf1LLAKGoSY_mxJ-133" target="a9wcAX0pc3dKkxditSkH-27" edge="1">
          <mxGeometry width="50" height="50" relative="1" as="geometry">
            <mxPoint x="1821" y="760" as="sourcePoint" />
            <mxPoint x="1681" y="900" as="targetPoint" />
          </mxGeometry>
        </mxCell>
        <mxCell id="a9wcAX0pc3dKkxditSkH-29" value="" style="endArrow=none;html=1;rounded=0;entryX=0.302;entryY=0.002;entryDx=0;entryDy=0;exitX=0;exitY=0.5;exitDx=0;exitDy=0;exitPerimeter=0;entryPerimeter=0;" parent="1" source="a9wcAX0pc3dKkxditSkH-27" target="a9wcAX0pc3dKkxditSkH-21" edge="1">
          <mxGeometry width="50" height="50" relative="1" as="geometry">
            <mxPoint x="1841" y="836.3" as="sourcePoint" />
            <mxPoint x="1821" y="840" as="targetPoint" />
          </mxGeometry>
        </mxCell>
        <mxCell id="a9wcAX0pc3dKkxditSkH-30" value="User input" style="edgeLabel;html=1;align=center;verticalAlign=middle;resizable=0;points=[];" parent="a9wcAX0pc3dKkxditSkH-29" vertex="1" connectable="0">
          <mxGeometry x="-0.2533" y="-2" relative="1" as="geometry">
            <mxPoint x="2" y="1" as="offset" />
          </mxGeometry>
        </mxCell>
        <mxCell id="a9wcAX0pc3dKkxditSkH-34" value="" style="endArrow=none;html=1;rounded=0;edgeStyle=orthogonalEdgeStyle;exitX=1;exitY=0.5;exitDx=0;exitDy=0;exitPerimeter=0;entryX=0.25;entryY=0;entryDx=0;entryDy=0;" parent="1" source="9eyt7Mf1LLAKGoSY_mxJ-63" target="9eyt7Mf1LLAKGoSY_mxJ-75" edge="1">
          <mxGeometry width="50" height="50" relative="1" as="geometry">
            <mxPoint x="1399.97" y="600" as="sourcePoint" />
            <mxPoint x="1480" y="770" as="targetPoint" />
            <Array as="points">
              <mxPoint x="1530" y="560" />
            </Array>
          </mxGeometry>
        </mxCell>
        <mxCell id="a9wcAX0pc3dKkxditSkH-35" value="" style="endArrow=none;html=1;rounded=0;exitX=1;exitY=0.5;exitDx=0;exitDy=0;edgeStyle=orthogonalEdgeStyle;exitPerimeter=0;entryX=0.5;entryY=0;entryDx=0;entryDy=0;" parent="1" source="9eyt7Mf1LLAKGoSY_mxJ-63" target="9eyt7Mf1LLAKGoSY_mxJ-43" edge="1">
          <mxGeometry width="50" height="50" relative="1" as="geometry">
            <mxPoint x="1440" y="600" as="sourcePoint" />
            <mxPoint x="1488" y="600" as="targetPoint" />
          </mxGeometry>
        </mxCell>
        <mxCell id="a9wcAX0pc3dKkxditSkH-36" value="" style="endArrow=classic;html=1;rounded=0;entryX=0.25;entryY=1;entryDx=0;entryDy=0;exitX=0.5;exitY=0;exitDx=0;exitDy=0;edgeStyle=orthogonalEdgeStyle;" parent="1" source="9eyt7Mf1LLAKGoSY_mxJ-39" target="9eyt7Mf1LLAKGoSY_mxJ-108" edge="1">
          <mxGeometry width="50" height="50" relative="1" as="geometry">
            <mxPoint x="1280" y="540" as="sourcePoint" />
            <mxPoint x="1330" y="490" as="targetPoint" />
            <Array as="points">
              <mxPoint x="1120" y="460" />
              <mxPoint x="1490" y="460" />
            </Array>
          </mxGeometry>
        </mxCell>
        <mxCell id="a9wcAX0pc3dKkxditSkH-37" value="Persist when state updates" style="edgeLabel;html=1;align=center;verticalAlign=middle;resizable=0;points=[];" parent="a9wcAX0pc3dKkxditSkH-36" vertex="1" connectable="0">
          <mxGeometry x="0.3185" y="3" relative="1" as="geometry">
            <mxPoint x="17" y="13" as="offset" />
          </mxGeometry>
        </mxCell>
        <mxCell id="a9wcAX0pc3dKkxditSkH-41" value="FormConfigState" style="text;html=1;strokeColor=none;fillColor=none;align=center;verticalAlign=middle;whiteSpace=wrap;rounded=0;" parent="1" vertex="1">
          <mxGeometry x="1675.5" y="530" width="91" height="10" as="geometry" />
        </mxCell>
        <mxCell id="a9wcAX0pc3dKkxditSkH-42" value="FormDataState" style="text;html=1;strokeColor=none;fillColor=none;align=center;verticalAlign=middle;whiteSpace=wrap;rounded=0;" parent="1" vertex="1">
          <mxGeometry x="1220" y="530" width="80" height="10" as="geometry" />
        </mxCell>
        <mxCell id="a9wcAX0pc3dKkxditSkH-43" value="" style="shape=providedRequiredInterface;html=1;verticalLabelPosition=bottom;sketch=0;direction=west;" parent="1" vertex="1">
          <mxGeometry x="1420" y="670" width="20" height="20" as="geometry" />
        </mxCell>
        <mxCell id="a9wcAX0pc3dKkxditSkH-44" value="" style="endArrow=none;html=1;rounded=0;entryX=1;entryY=0.5;entryDx=0;entryDy=0;entryPerimeter=0;" parent="1" source="9eyt7Mf1LLAKGoSY_mxJ-43" target="a9wcAX0pc3dKkxditSkH-43" edge="1">
          <mxGeometry width="50" height="50" relative="1" as="geometry">
            <mxPoint x="1360" y="680" as="sourcePoint" />
            <mxPoint x="1390" y="700" as="targetPoint" />
          </mxGeometry>
        </mxCell>
        <mxCell id="a9wcAX0pc3dKkxditSkH-45" value="" style="endArrow=none;html=1;rounded=0;exitX=0;exitY=0.5;exitDx=0;exitDy=0;exitPerimeter=0;" parent="1" source="a9wcAX0pc3dKkxditSkH-43" target="9eyt7Mf1LLAKGoSY_mxJ-75" edge="1">
          <mxGeometry width="50" height="50" relative="1" as="geometry">
            <mxPoint x="1430" y="660" as="sourcePoint" />
            <mxPoint x="1460" y="680" as="targetPoint" />
          </mxGeometry>
        </mxCell>
        <mxCell id="a9wcAX0pc3dKkxditSkH-46" value="Source code" style="text;html=1;strokeColor=none;fillColor=none;align=center;verticalAlign=middle;whiteSpace=wrap;rounded=0;" parent="1" vertex="1">
          <mxGeometry x="1390" y="700" width="80" height="10" as="geometry" />
        </mxCell>
        <mxCell id="m40Je0ZqrR0ATZ76lo0D-1" value="" style="group" parent="1" vertex="1" connectable="0">
          <mxGeometry x="40" y="520" width="160" height="80" as="geometry" />
        </mxCell>
        <mxCell id="m40Je0ZqrR0ATZ76lo0D-2" value="«artifact»&lt;br&gt;&lt;b&gt;Type Definition&lt;/b&gt;" style="html=1;align=center;verticalAlign=middle;dashed=0;whiteSpace=wrap;" parent="m40Je0ZqrR0ATZ76lo0D-1" vertex="1">
          <mxGeometry width="160" height="80" as="geometry" />
        </mxCell>
        <mxCell id="m40Je0ZqrR0ATZ76lo0D-3" value="" style="html=1;outlineConnect=0;whiteSpace=wrap;shape=mxgraph.archimate3.artifact;" parent="m40Je0ZqrR0ATZ76lo0D-1" vertex="1">
          <mxGeometry x="141.66999999999996" y="5.7142857142857135" width="13.33" height="22.857142857142854" as="geometry" />
        </mxCell>
        <mxCell id="m40Je0ZqrR0ATZ76lo0D-4" value="«component»&lt;br&gt;&lt;b&gt;FormDataCreateService&lt;/b&gt;" style="html=1;dropTarget=0;whiteSpace=wrap;" parent="1" vertex="1">
          <mxGeometry x="640" y="320" width="200" height="80" as="geometry" />
        </mxCell>
        <mxCell id="m40Je0ZqrR0ATZ76lo0D-5" value="" style="shape=module;jettyWidth=8;jettyHeight=4;" parent="m40Je0ZqrR0ATZ76lo0D-4" vertex="1">
          <mxGeometry x="1" width="20" height="20" relative="1" as="geometry">
            <mxPoint x="-27" y="7" as="offset" />
          </mxGeometry>
        </mxCell>
        <mxCell id="m40Je0ZqrR0ATZ76lo0D-6" value="User input" style="shape=providedRequiredInterface;html=1;verticalLabelPosition=bottom;sketch=0;" parent="1" vertex="1">
          <mxGeometry x="250" y="550" width="20" height="20" as="geometry" />
        </mxCell>
        <mxCell id="m40Je0ZqrR0ATZ76lo0D-7" value="" style="endArrow=none;html=1;rounded=0;entryX=0;entryY=0.5;entryDx=0;entryDy=0;entryPerimeter=0;" parent="1" source="m40Je0ZqrR0ATZ76lo0D-2" target="m40Je0ZqrR0ATZ76lo0D-6" edge="1">
          <mxGeometry width="50" height="50" relative="1" as="geometry">
            <mxPoint x="220" y="480" as="sourcePoint" />
            <mxPoint x="240" y="500" as="targetPoint" />
          </mxGeometry>
        </mxCell>
        <mxCell id="m40Je0ZqrR0ATZ76lo0D-8" value="" style="endArrow=none;html=1;rounded=0;exitX=1;exitY=0.5;exitDx=0;exitDy=0;exitPerimeter=0;" parent="1" source="m40Je0ZqrR0ATZ76lo0D-6" edge="1">
          <mxGeometry width="50" height="50" relative="1" as="geometry">
            <mxPoint x="280" y="479.94000000000005" as="sourcePoint" />
            <mxPoint x="320" y="560" as="targetPoint" />
          </mxGeometry>
        </mxCell>
        <mxCell id="m40Je0ZqrR0ATZ76lo0D-12" value="«component»&lt;br&gt;&lt;b&gt;UploadView&lt;/b&gt;" style="html=1;dropTarget=0;whiteSpace=wrap;" parent="1" vertex="1">
          <mxGeometry x="640" y="520" width="200" height="80" as="geometry" />
        </mxCell>
        <mxCell id="m40Je0ZqrR0ATZ76lo0D-13" value="" style="shape=module;jettyWidth=8;jettyHeight=4;" parent="m40Je0ZqrR0ATZ76lo0D-12" vertex="1">
          <mxGeometry x="1" width="20" height="20" relative="1" as="geometry">
            <mxPoint x="-27" y="7" as="offset" />
          </mxGeometry>
        </mxCell>
        <mxCell id="m40Je0ZqrR0ATZ76lo0D-14" value="«component»&lt;br&gt;&lt;b&gt;UploadFormComponent&lt;/b&gt;" style="html=1;dropTarget=0;whiteSpace=wrap;" parent="1" vertex="1">
          <mxGeometry x="320" y="520" width="200" height="80" as="geometry" />
        </mxCell>
        <mxCell id="m40Je0ZqrR0ATZ76lo0D-15" value="" style="shape=module;jettyWidth=8;jettyHeight=4;" parent="m40Je0ZqrR0ATZ76lo0D-14" vertex="1">
          <mxGeometry x="1" width="20" height="20" relative="1" as="geometry">
            <mxPoint x="-27" y="7" as="offset" />
          </mxGeometry>
        </mxCell>
        <mxCell id="m40Je0ZqrR0ATZ76lo0D-16" value="User input" style="shape=providedRequiredInterface;html=1;verticalLabelPosition=bottom;sketch=0;" parent="1" vertex="1">
          <mxGeometry x="570" y="550" width="20" height="20" as="geometry" />
        </mxCell>
        <mxCell id="m40Je0ZqrR0ATZ76lo0D-17" value="" style="endArrow=none;html=1;rounded=0;entryX=0;entryY=0.5;entryDx=0;entryDy=0;entryPerimeter=0;exitX=1;exitY=0.5;exitDx=0;exitDy=0;" parent="1" source="m40Je0ZqrR0ATZ76lo0D-14" target="m40Je0ZqrR0ATZ76lo0D-16" edge="1">
          <mxGeometry width="50" height="50" relative="1" as="geometry">
            <mxPoint x="520" y="620" as="sourcePoint" />
            <mxPoint x="560" y="560" as="targetPoint" />
          </mxGeometry>
        </mxCell>
        <mxCell id="m40Je0ZqrR0ATZ76lo0D-18" value="" style="endArrow=none;html=1;rounded=0;exitX=1;exitY=0.5;exitDx=0;exitDy=0;exitPerimeter=0;entryX=0;entryY=0.5;entryDx=0;entryDy=0;" parent="1" source="m40Je0ZqrR0ATZ76lo0D-16" target="m40Je0ZqrR0ATZ76lo0D-12" edge="1">
          <mxGeometry width="50" height="50" relative="1" as="geometry">
            <mxPoint x="600" y="539.94" as="sourcePoint" />
            <mxPoint x="640" y="620" as="targetPoint" />
          </mxGeometry>
        </mxCell>
        <mxCell id="m40Je0ZqrR0ATZ76lo0D-24" value="" style="shape=providedRequiredInterface;html=1;verticalLabelPosition=bottom;sketch=0;direction=south;" parent="1" vertex="1">
          <mxGeometry x="770" y="450" width="20" height="20" as="geometry" />
        </mxCell>
        <mxCell id="m40Je0ZqrR0ATZ76lo0D-25" value="" style="endArrow=none;html=1;rounded=0;entryX=0;entryY=0.5;entryDx=0;entryDy=0;entryPerimeter=0;" parent="1" target="m40Je0ZqrR0ATZ76lo0D-24" edge="1">
          <mxGeometry width="50" height="50" relative="1" as="geometry">
            <mxPoint x="780" y="400" as="sourcePoint" />
            <mxPoint x="330" y="600" as="targetPoint" />
          </mxGeometry>
        </mxCell>
        <mxCell id="m40Je0ZqrR0ATZ76lo0D-26" value="FormData" style="edgeLabel;html=1;align=center;verticalAlign=middle;resizable=0;points=[];" parent="m40Je0ZqrR0ATZ76lo0D-25" vertex="1" connectable="0">
          <mxGeometry x="0.1771" y="2" relative="1" as="geometry">
            <mxPoint x="-2" as="offset" />
          </mxGeometry>
        </mxCell>
        <mxCell id="m40Je0ZqrR0ATZ76lo0D-27" value="" style="endArrow=none;html=1;rounded=0;entryX=0.7;entryY=0;entryDx=0;entryDy=0;exitX=1;exitY=0.5;exitDx=0;exitDy=0;exitPerimeter=0;entryPerimeter=0;" parent="1" source="m40Je0ZqrR0ATZ76lo0D-24" target="m40Je0ZqrR0ATZ76lo0D-12" edge="1">
          <mxGeometry width="50" height="50" relative="1" as="geometry">
            <mxPoint x="580" y="476.24" as="sourcePoint" />
            <mxPoint x="780" y="500" as="targetPoint" />
          </mxGeometry>
        </mxCell>
        <mxCell id="m40Je0ZqrR0ATZ76lo0D-28" value="" style="shape=providedRequiredInterface;html=1;verticalLabelPosition=bottom;sketch=0;direction=north;" parent="1" vertex="1">
          <mxGeometry x="690" y="450" width="20" height="20" as="geometry" />
        </mxCell>
        <mxCell id="m40Je0ZqrR0ATZ76lo0D-29" value="" style="endArrow=none;html=1;rounded=0;entryX=1;entryY=0.5;entryDx=0;entryDy=0;entryPerimeter=0;" parent="1" target="m40Je0ZqrR0ATZ76lo0D-28" edge="1">
          <mxGeometry width="50" height="50" relative="1" as="geometry">
            <mxPoint x="700" y="400" as="sourcePoint" />
            <mxPoint x="510" y="560" as="targetPoint" />
          </mxGeometry>
        </mxCell>
        <mxCell id="m40Je0ZqrR0ATZ76lo0D-30" value="" style="endArrow=none;html=1;rounded=0;entryX=0.3;entryY=0;entryDx=0;entryDy=0;exitX=0;exitY=0.5;exitDx=0;exitDy=0;exitPerimeter=0;entryPerimeter=0;" parent="1" source="m40Je0ZqrR0ATZ76lo0D-28" target="m40Je0ZqrR0ATZ76lo0D-12" edge="1">
          <mxGeometry width="50" height="50" relative="1" as="geometry">
            <mxPoint x="720" y="496.29999999999995" as="sourcePoint" />
            <mxPoint x="700" y="500" as="targetPoint" />
          </mxGeometry>
        </mxCell>
        <mxCell id="m40Je0ZqrR0ATZ76lo0D-31" value="User input" style="edgeLabel;html=1;align=center;verticalAlign=middle;resizable=0;points=[];" parent="m40Je0ZqrR0ATZ76lo0D-30" vertex="1" connectable="0">
          <mxGeometry x="-0.2533" y="-2" relative="1" as="geometry">
            <mxPoint x="2" y="1" as="offset" />
          </mxGeometry>
        </mxCell>
      </root>
    </mxGraphModel>
  </diagram>
</mxfile>
